<svg width="40" height="40" viewBox="0 0 40 40" fill="none" xmlns="http://www.w3.org/2000/svg">
<rect width="40" height="40" rx="5" fill="#7152F3" fill-opacity="0.05"/>
<g clip-path="url(#clip0_4134_2119)">
<path d="M16.6666 15.0001V14.1667C16.6666 12.786 17.7859 11.6667 19.1666 11.6667H20.8333C22.214 11.6667 23.3333 12.786 23.3333 14.1667V15.0001M11.6666 18.623C11.6666 18.623 14.265 20.3538 18.3147 20.7591M28.3333 18.623C28.3333 18.623 25.7349 20.3538 21.6852 20.7591M15 28.3334H25C26.8409 28.3334 28.3333 26.841 28.3333 25.0001V18.3334C28.3333 16.4925 26.8409 15.0001 25 15.0001H15C13.159 15.0001 11.6666 16.4925 11.6666 18.3334V25.0001C11.6666 26.841 13.159 28.3334 15 28.3334Z" stroke="#7152F3" stroke-width="1.5" stroke-linecap="round"/>
<path d="M21.6667 20.1334V20.9667C21.6667 20.975 21.6667 20.975 21.6667 20.9834C21.6667 21.8917 21.6584 22.6334 20 22.6334C18.35 22.6334 18.3334 21.9 18.3334 20.9917V20.1334C18.3334 19.3 18.3334 19.3 19.1667 19.3H20.8334C21.6667 19.3 21.6667 19.3 21.6667 20.1334Z" stroke="#7152F3" stroke-width="1.5" stroke-miterlimit="10" stroke-linecap="round" stroke-linejoin="round"/>
</g>
<defs>
<clipPath id="clip0_4134_2119">
<rect width="20" height="20" fill="white" transform="translate(10 10)"/>
</clipPath>
</defs>
</svg>
