<svg width="40" height="40" viewBox="0 0 40 40" fill="none" xmlns="http://www.w3.org/2000/svg">
<rect width="40" height="40" rx="5" fill="#7152F3" fill-opacity="0.05"/>
<ellipse cx="20" cy="23.7501" rx="5" ry="2.08333" stroke="#7152F3" stroke-width="1.5" stroke-linejoin="round"/>
<ellipse cx="20" cy="16.6667" rx="2.5" ry="2.5" stroke="#7152F3" stroke-width="1.5" stroke-linejoin="round"/>
<path d="M15.627 20.9216C14.6727 21.3886 13.9577 22.0049 13.5967 22.7068C13.4419 22.7518 13.2975 22.7988 13.166 22.8513C12.8416 22.9811 12.6288 23.1168 12.5098 23.2292C12.4572 23.279 12.4325 23.3136 12.4219 23.3328C12.4322 23.3517 12.4564 23.3868 12.5098 23.4373C12.6288 23.5497 12.8415 23.6854 13.166 23.8152C13.221 23.8372 13.2787 23.8569 13.3379 23.8777C13.3758 24.5152 13.6971 25.1112 14.2324 25.6296C13.63 25.5378 13.0778 25.3965 12.6084 25.2087C12.1794 25.0371 11.7821 24.8131 11.4795 24.5271C11.2133 24.2754 10.9823 23.9352 10.9287 23.5173L10.917 23.3337L10.9287 23.1492C10.9823 22.7314 11.2133 22.3911 11.4795 22.1394C11.782 21.8535 12.1795 21.6303 12.6084 21.4587C13.4223 21.1332 14.4839 20.9425 15.627 20.9216Z" fill="#7152F3"/>
<path d="M24.3729 20.9216C25.5162 20.9425 26.5775 21.1332 27.3915 21.4587C27.8207 21.6304 28.2187 21.8532 28.5214 22.1394C28.8256 22.4272 29.0829 22.8309 29.0829 23.3337C29.0827 23.8363 28.8255 24.2394 28.5214 24.5271C28.2187 24.8133 27.8207 25.037 27.3915 25.2087C26.922 25.3965 26.3698 25.5377 25.7675 25.6296C26.3029 25.1112 26.624 24.5152 26.662 23.8777C26.7212 23.8569 26.7789 23.8372 26.8339 23.8152C27.1583 23.6854 27.3711 23.5497 27.4901 23.4373C27.5431 23.3872 27.5666 23.3519 27.577 23.3328C27.5663 23.3135 27.5423 23.2786 27.4901 23.2292C27.371 23.1168 27.1582 22.9811 26.8339 22.8513C26.7024 22.7988 26.558 22.7518 26.4032 22.7068C26.0422 22.0049 25.3272 21.3886 24.3729 20.9216Z" fill="#7152F3"/>
<path d="M24.1667 15.083C25.5012 15.0832 26.5826 16.1656 26.5828 17.5C26.5826 18.8344 25.5012 19.9158 24.1667 19.916C23.7286 19.916 23.3189 19.7976 22.9646 19.5938C23.3186 19.2352 23.6081 18.8131 23.8142 18.3457C23.9228 18.391 24.0418 18.416 24.1667 18.416C24.6728 18.4158 25.0826 18.006 25.0828 17.5C25.0826 16.994 24.6728 16.5832 24.1667 16.583H24.1648C24.1545 16.0612 24.0483 15.5633 23.863 15.1055C23.9626 15.0929 24.0637 15.083 24.1667 15.083Z" fill="#7152F3"/>
<path d="M15.834 15.083C15.9366 15.083 16.0375 15.092 16.1367 15.1045C15.9513 15.5626 15.8452 16.0609 15.835 16.583H15.834C15.3278 16.583 14.9172 16.9939 14.917 17.5C14.9172 18.0061 15.3278 18.416 15.834 18.416C15.959 18.4159 16.078 18.391 16.1865 18.3457C16.3926 18.813 16.6813 19.2353 17.0352 19.5938C16.6811 19.7974 16.2718 19.9159 15.834 19.916C14.4994 19.916 13.4172 18.8345 13.417 17.5C13.4172 16.1655 14.4994 15.083 15.834 15.083Z" fill="#7152F3"/>
</svg>
