<svg width="40" height="40" viewBox="0 0 40 40" fill="none" xmlns="http://www.w3.org/2000/svg">
<rect width="40" height="40" rx="5" fill="#7152F3" fill-opacity="0.05"/>
<path d="M15.8333 28.3334C17.3896 28.3334 18.6967 27.2669 19.0638 25.825C19.1774 25.379 19.5398 25.0001 20 25.0001H25.8333M15.8333 28.3334C13.9924 28.3334 12.5 26.841 12.5 25.0001V14.1667C12.5 12.786 13.6193 11.6667 15 11.6667H23.3333C24.714 11.6667 25.8333 12.786 25.8333 14.1667V25.0001M15.8333 28.3334H25.8333C27.3896 28.3334 28.6967 27.2669 29.0638 25.825C29.1774 25.379 28.7936 25.0001 28.3333 25.0001H25.8333M22.5 15.8334H15.8333M19.1667 20.0001H15.8333" stroke="#7152F3" stroke-width="1.5" stroke-linecap="round"/>
</svg>
