<svg width="79" height="21" viewBox="0 0 79 21" fill="none" xmlns="http://www.w3.org/2000/svg">
<path d="M13.0393 20.3222V0.824678H16.0475V20.3222H13.0393ZM0.310242 20.3222V0.824678H3.31843V20.3222H0.310242ZM1.61936 12.0497V9.1529H14.3763V12.0497H1.61936Z" fill="#16151C"/>
<path d="M21.4996 20.3222V0.824678H29.8C30.9141 0.824678 31.9354 1.10321 32.8639 1.66029C33.8109 2.19879 34.563 2.94155 35.12 3.88857C35.6771 4.81702 35.9556 5.86618 35.9556 7.03603C35.9556 8.09446 35.6771 9.07862 35.12 9.98851C34.563 10.8984 33.8202 11.6319 32.8917 12.1889C31.9633 12.7274 30.9327 12.9967 29.8 12.9967H24.5078V20.3222H21.4996ZM33.0867 20.3222L28.1288 11.5205L31.2205 10.8241L36.7355 20.35L33.0867 20.3222ZM24.5078 10.0999H30.0785C30.617 10.0999 31.0998 9.96994 31.5269 9.70997C31.954 9.43143 32.2883 9.06005 32.5297 8.59583C32.771 8.11303 32.8917 7.58381 32.8917 7.00817C32.8917 6.35826 32.7339 5.7919 32.4182 5.3091C32.1211 4.80774 31.694 4.41779 31.137 4.13925C30.5985 3.86072 29.9857 3.72145 29.2986 3.72145H24.5078V10.0999Z" fill="#16151C"/>
<path d="M40.8666 20.3222V0.824678H43.819L50.9217 12.3839L49.5012 12.3561L56.6874 0.824678H59.4728V20.3222H56.4646V12.3282C56.4646 10.657 56.5017 9.1529 56.576 7.81593C56.6688 6.47896 56.8174 5.15127 57.0217 3.83287L57.4116 4.86345L51.0331 14.7236H49.1948L43.0113 4.97486L43.3177 3.83287C43.5219 5.07699 43.6612 6.35826 43.7355 7.67666C43.8283 8.97649 43.8748 10.527 43.8748 12.3282V20.3222H40.8666Z" fill="#16151C"/>
<path d="M70.9556 20.6007C69.8972 20.6007 68.913 20.4615 68.0031 20.1829C67.1118 19.9044 66.2948 19.4866 65.552 18.9295C64.8278 18.3539 64.1779 17.6482 63.6023 16.8126L65.6634 14.4451C66.5733 15.7449 67.4461 16.6455 68.2817 17.1469C69.1173 17.6482 70.1107 17.8989 71.262 17.8989C71.9676 17.8989 72.6083 17.7875 73.1839 17.5647C73.7596 17.3419 74.2145 17.0355 74.5487 16.6455C74.883 16.2556 75.0501 15.8099 75.0501 15.3085C75.0501 14.9743 74.9944 14.6586 74.883 14.3615C74.7716 14.0644 74.5952 13.7952 74.3538 13.5538C74.1309 13.3124 73.8338 13.0895 73.4624 12.8853C73.1096 12.681 72.6918 12.5046 72.209 12.3561C71.7262 12.1889 71.1692 12.0497 70.5378 11.9383C69.5351 11.734 68.6623 11.4647 67.9196 11.1305C67.1768 10.7963 66.5548 10.3785 66.0534 9.87709C65.552 9.37573 65.1806 8.80937 64.9392 8.17802C64.6979 7.52811 64.5771 6.80391 64.5771 6.00544C64.5771 5.22554 64.7443 4.50135 65.0785 3.83287C65.4313 3.16438 65.9048 2.58874 66.499 2.10594C67.1118 1.60458 67.8267 1.22391 68.6438 0.963946C69.4608 0.68541 70.3428 0.546143 71.2899 0.546143C72.2926 0.546143 73.2118 0.676126 74.0474 0.936093C74.883 1.19606 75.6257 1.58601 76.2757 2.10594C76.9256 2.60731 77.4641 3.22937 77.8912 3.97213L75.7743 6.06115C75.4029 5.44837 74.9851 4.93772 74.5209 4.5292C74.0567 4.10212 73.546 3.78644 72.9889 3.58218C72.4319 3.35935 71.8376 3.24794 71.2063 3.24794C70.4821 3.24794 69.8508 3.35935 69.3123 3.58218C68.7738 3.80501 68.3467 4.12068 68.031 4.5292C67.7339 4.91915 67.5853 5.38338 67.5853 5.92188C67.5853 6.31183 67.6596 6.67393 67.8082 7.00817C67.9567 7.32385 68.1796 7.61167 68.4767 7.87163C68.7923 8.11303 69.2101 8.33586 69.7301 8.54012C70.25 8.72581 70.8721 8.89293 71.5963 9.04148C72.6176 9.26431 73.5274 9.55213 74.3259 9.90495C75.1244 10.2392 75.8021 10.6384 76.3592 11.1026C76.9163 11.5669 77.3341 12.0868 77.6126 12.6624C77.9097 13.2381 78.0583 13.8602 78.0583 14.5286C78.0583 15.7728 77.7705 16.8498 77.1948 17.7597C76.6192 18.6695 75.8021 19.3752 74.7437 19.8765C73.6853 20.3593 72.4226 20.6007 70.9556 20.6007Z" fill="#16151C"/>
</svg>
