<svg width="24" height="25" viewBox="0 0 24 25" fill="none" xmlns="http://www.w3.org/2000/svg">
<path d="M14.5299 10.1062L9.46992 15.1662C8.81992 14.5162 8.41992 13.6262 8.41992 12.6362C8.41992 10.6562 10.0199 9.05615 11.9999 9.05615C12.9899 9.05615 13.8799 9.45615 14.5299 10.1062Z" stroke="#16151C" stroke-width="1.5" stroke-linecap="round" stroke-linejoin="round"/>
<path d="M17.8201 6.40609C16.0701 5.08609 14.0701 4.36609 12.0001 4.36609C8.47009 4.36609 5.18009 6.44609 2.89009 10.0461C1.99009 11.4561 1.99009 13.8261 2.89009 15.2361C3.68009 16.4761 4.60009 17.5461 5.60009 18.4061" stroke="#16151C" stroke-width="1.5" stroke-linecap="round" stroke-linejoin="round"/>
<path d="M8.41992 20.1662C9.55992 20.6462 10.7699 20.9062 11.9999 20.9062C15.5299 20.9062 18.8199 18.8262 21.1099 15.2262C22.0099 13.8162 22.0099 11.4462 21.1099 10.0362C20.7799 9.51616 20.4199 9.02616 20.0499 8.56616" stroke="#16151C" stroke-width="1.5" stroke-linecap="round" stroke-linejoin="round"/>
<path d="M15.5099 13.3361C15.2499 14.7461 14.0999 15.8961 12.6899 16.1561" stroke="#16151C" stroke-width="1.5" stroke-linecap="round" stroke-linejoin="round"/>
<path d="M9.47 15.1661L2 22.6361" stroke="#16151C" stroke-width="1.5" stroke-linecap="round" stroke-linejoin="round"/>
<path d="M22 2.63611L14.53 10.1061" stroke="#16151C" stroke-width="1.5" stroke-linecap="round" stroke-linejoin="round"/>
</svg>
