<svg width="49" height="26" viewBox="0 0 49 26" fill="none" xmlns="http://www.w3.org/2000/svg">
<rect width="49" height="26" rx="5" fill="#F45B69" fill-opacity="0.1"/>
<path d="M15.7679 8.5L12.2321 8.5C10.6885 8.5 9.72675 10.1744 10.5045 11.5077L12.2724 14.5385C13.0442 15.8615 14.9558 15.8615 15.7276 14.5385L17.4955 11.5077C18.2732 10.1744 17.3115 8.5 15.7679 8.5Z" fill="#F45B69"/>
<path d="M31.5279 17.033C31.0512 17.033 30.6149 16.934 30.2189 16.736C29.8302 16.5307 29.5186 16.2593 29.2839 15.922C29.0492 15.5773 28.9319 15.1997 28.9319 14.789C28.9319 14.5617 28.9649 14.349 29.0309 14.151C29.1042 13.9457 29.2069 13.7587 29.3389 13.59C29.4782 13.414 29.6469 13.2563 29.8449 13.117C30.0429 12.9703 30.2702 12.8457 30.5269 12.743L30.4609 12.974C30.2629 12.9153 30.0832 12.831 29.9219 12.721C29.7606 12.611 29.6249 12.4863 29.5149 12.347C29.4049 12.2003 29.3206 12.0427 29.2619 11.874C29.2032 11.698 29.1739 11.5183 29.1739 11.335C29.1739 10.961 29.2766 10.62 29.4819 10.312C29.6946 10.004 29.9769 9.75833 30.3289 9.575C30.6882 9.39167 31.0879 9.3 31.5279 9.3C31.9606 9.3 32.3529 9.39167 32.7049 9.575C33.0642 9.75833 33.3466 10.004 33.5519 10.312C33.7646 10.62 33.8709 10.961 33.8709 11.335C33.8709 11.5183 33.8416 11.6943 33.7829 11.863C33.7316 12.0317 33.6509 12.1893 33.5409 12.336C33.4309 12.4753 33.2916 12.6 33.1229 12.71C32.9616 12.82 32.7782 12.908 32.5729 12.974L32.5399 12.787C32.7746 12.8677 32.9872 12.9813 33.1779 13.128C33.3759 13.2673 33.5446 13.425 33.6839 13.601C33.8232 13.777 33.9296 13.9677 34.0029 14.173C34.0836 14.371 34.1239 14.5763 34.1239 14.789C34.1239 15.207 34.0066 15.5883 33.7719 15.933C33.5446 16.2703 33.2329 16.538 32.8369 16.736C32.4482 16.934 32.0119 17.033 31.5279 17.033ZM31.5279 16.219C31.8579 16.219 32.1512 16.1567 32.4079 16.032C32.6719 15.9 32.8772 15.724 33.0239 15.504C33.1779 15.284 33.2549 15.0383 33.2549 14.767C33.2549 14.4883 33.1779 14.2427 33.0239 14.03C32.8772 13.81 32.6719 13.6377 32.4079 13.513C32.1512 13.381 31.8579 13.315 31.5279 13.315C31.1979 13.315 30.9009 13.381 30.6369 13.513C30.3802 13.6377 30.1749 13.81 30.0209 14.03C29.8742 14.2427 29.8009 14.4883 29.8009 14.767C29.8009 15.0383 29.8742 15.284 30.0209 15.504C30.1749 15.7167 30.3802 15.889 30.6369 16.021C30.9009 16.153 31.1979 16.219 31.5279 16.219ZM31.5279 12.578C31.8066 12.578 32.0559 12.5267 32.2759 12.424C32.5032 12.3213 32.6792 12.1783 32.8039 11.995C32.9359 11.8117 33.0019 11.599 33.0019 11.357C33.0019 11.1223 32.9359 10.9133 32.8039 10.73C32.6792 10.5393 32.5032 10.389 32.2759 10.279C32.0559 10.169 31.8066 10.114 31.5279 10.114C31.2419 10.114 30.9852 10.169 30.7579 10.279C30.5379 10.389 30.3619 10.5393 30.2299 10.73C30.1052 10.9133 30.0429 11.1223 30.0429 11.357C30.0429 11.5917 30.1052 11.8043 30.2299 11.995C30.3619 12.1783 30.5379 12.3213 30.7579 12.424C30.9852 12.5267 31.2419 12.578 31.5279 12.578ZM36.3028 17L41.4178 9.3H42.2868L37.1498 17H36.3028ZM36.8748 13.381C36.5448 13.381 36.2514 13.293 35.9948 13.117C35.7454 12.9337 35.5474 12.688 35.4008 12.38C35.2614 12.0647 35.1918 11.7053 35.1918 11.302C35.1918 10.8987 35.2614 10.5393 35.4008 10.224C35.5474 9.90133 35.7491 9.652 36.0058 9.476C36.2624 9.29267 36.5558 9.201 36.8858 9.201C37.2158 9.201 37.5054 9.29267 37.7548 9.476C38.0114 9.652 38.2094 9.90133 38.3488 10.224C38.4954 10.5393 38.5688 10.8987 38.5688 11.302C38.5688 11.6907 38.4954 12.0427 38.3488 12.358C38.2021 12.6733 38.0004 12.9227 37.7438 13.106C37.4871 13.2893 37.1974 13.381 36.8748 13.381ZM36.8858 12.721C37.0838 12.721 37.2524 12.666 37.3918 12.556C37.5384 12.4387 37.6484 12.2737 37.7218 12.061C37.8024 11.8483 37.8428 11.5917 37.8428 11.291C37.8428 10.9977 37.8024 10.7447 37.7218 10.532C37.6484 10.3193 37.5384 10.1543 37.3918 10.037C37.2451 9.91967 37.0728 9.861 36.8748 9.861C36.6768 9.861 36.5044 9.92333 36.3578 10.048C36.2111 10.1653 36.0974 10.3303 36.0168 10.543C35.9434 10.7557 35.9068 11.0087 35.9068 11.302C35.9068 11.5953 35.9434 11.8483 36.0168 12.061C36.0974 12.2737 36.2111 12.4387 36.3578 12.556C36.5044 12.666 36.6804 12.721 36.8858 12.721ZM41.7478 17.099C41.4178 17.099 41.1244 17.011 40.8678 16.835C40.6184 16.6517 40.4204 16.406 40.2737 16.098C40.1271 15.7827 40.0538 15.4233 40.0538 15.02C40.0538 14.6167 40.1234 14.2573 40.2628 13.942C40.4094 13.6193 40.6111 13.37 40.8678 13.194C41.1244 13.0107 41.4178 12.919 41.7478 12.919C42.0778 12.919 42.3674 13.0107 42.6168 13.194C42.8734 13.37 43.0714 13.6193 43.2108 13.942C43.3574 14.2573 43.4308 14.6167 43.4308 15.02C43.4308 15.4087 43.3574 15.7607 43.2108 16.076C43.0641 16.3913 42.8624 16.6407 42.6058 16.824C42.3564 17.0073 42.0704 17.099 41.7478 17.099ZM41.7478 16.439C41.9458 16.439 42.1181 16.384 42.2648 16.274C42.4114 16.1567 42.5214 15.9917 42.5948 15.779C42.6754 15.5663 42.7158 15.3097 42.7158 15.009C42.7158 14.7157 42.6754 14.4627 42.5948 14.25C42.5214 14.0373 42.4114 13.8723 42.2648 13.755C42.1181 13.6377 41.9458 13.579 41.7478 13.579C41.5424 13.579 41.3664 13.6377 41.2198 13.755C41.0804 13.8723 40.9704 14.041 40.8898 14.261C40.8164 14.4737 40.7797 14.7267 40.7797 15.02C40.7797 15.3133 40.8164 15.5663 40.8898 15.779C40.9704 15.9917 41.0804 16.1567 41.2198 16.274C41.3664 16.384 41.5424 16.439 41.7478 16.439Z" fill="#F45B69"/>
</svg>
