<svg width="54" height="26" viewBox="0 0 54 26" fill="none" xmlns="http://www.w3.org/2000/svg">
<rect width="54" height="26" rx="5" fill="#30BE82" fill-opacity="0.1"/>
<path d="M12.2321 16.75L15.7679 16.75C17.3115 16.75 18.2733 15.0756 17.4955 13.7423L15.7276 10.7115C14.9558 9.38852 13.0442 9.38852 12.2724 10.7115L10.5045 13.7423C9.72675 15.0756 10.6885 16.75 12.2321 16.75Z" fill="#30BE82"/>
<path d="M30.277 16.626V9.982L30.596 10.224L29.166 11.082L28.913 10.312L30.816 9.19H31.146V16.626H30.277ZM29.144 17V16.164H32.301V17H29.144ZM34.0611 17L33.7971 16.362L36.3931 13.447C36.5178 13.3077 36.6461 13.15 36.7781 12.974C36.9174 12.798 37.0458 12.6147 37.1631 12.424C37.2878 12.226 37.3868 12.0317 37.4601 11.841C37.5334 11.6503 37.5701 11.4633 37.5701 11.28C37.5701 11.0087 37.5114 10.7813 37.3941 10.598C37.2768 10.4073 37.1081 10.2607 36.8881 10.158C36.6754 10.0553 36.4261 10.004 36.1401 10.004C35.8908 10.004 35.6451 10.0627 35.4031 10.18C35.1611 10.2973 34.9411 10.477 34.7431 10.719C34.5451 10.961 34.3911 11.269 34.2811 11.643L33.5991 11.236C33.7311 10.7887 33.9254 10.4147 34.1821 10.114C34.4388 9.806 34.7431 9.575 35.0951 9.421C35.4471 9.267 35.8248 9.19 36.2281 9.19C36.6534 9.19 37.0348 9.278 37.3721 9.454C37.7094 9.62267 37.9771 9.86467 38.1751 10.18C38.3731 10.488 38.4721 10.8437 38.4721 11.247C38.4721 11.423 38.4501 11.599 38.4061 11.775C38.3694 11.951 38.3108 12.127 38.2301 12.303C38.1494 12.479 38.0504 12.6587 37.9331 12.842C37.8231 13.0253 37.6911 13.2123 37.5371 13.403C37.3904 13.5937 37.2254 13.7917 37.0421 13.997L34.8311 16.461L34.6991 16.175H38.7141V17H34.0611ZM40.6485 17L45.7635 9.3H46.6325L41.4955 17H40.6485ZM41.2205 13.381C40.8905 13.381 40.5971 13.293 40.3405 13.117C40.0911 12.9337 39.8931 12.688 39.7465 12.38C39.6071 12.0647 39.5375 11.7053 39.5375 11.302C39.5375 10.8987 39.6071 10.5393 39.7465 10.224C39.8931 9.90133 40.0948 9.652 40.3515 9.476C40.6081 9.29267 40.9015 9.201 41.2315 9.201C41.5615 9.201 41.8511 9.29267 42.1005 9.476C42.3571 9.652 42.5551 9.90133 42.6945 10.224C42.8411 10.5393 42.9145 10.8987 42.9145 11.302C42.9145 11.6907 42.8411 12.0427 42.6945 12.358C42.5478 12.6733 42.3461 12.9227 42.0895 13.106C41.8328 13.2893 41.5431 13.381 41.2205 13.381ZM41.2315 12.721C41.4295 12.721 41.5981 12.666 41.7375 12.556C41.8841 12.4387 41.9941 12.2737 42.0675 12.061C42.1481 11.8483 42.1885 11.5917 42.1885 11.291C42.1885 10.9977 42.1481 10.7447 42.0675 10.532C41.9941 10.3193 41.8841 10.1543 41.7375 10.037C41.5908 9.91967 41.4185 9.861 41.2205 9.861C41.0225 9.861 40.8501 9.92333 40.7035 10.048C40.5568 10.1653 40.4431 10.3303 40.3625 10.543C40.2891 10.7557 40.2525 11.0087 40.2525 11.302C40.2525 11.5953 40.2891 11.8483 40.3625 12.061C40.4431 12.2737 40.5568 12.4387 40.7035 12.556C40.8501 12.666 41.0261 12.721 41.2315 12.721ZM46.0935 17.099C45.7635 17.099 45.4701 17.011 45.2135 16.835C44.9641 16.6517 44.7661 16.406 44.6195 16.098C44.4728 15.7827 44.3995 15.4233 44.3995 15.02C44.3995 14.6167 44.4691 14.2573 44.6085 13.942C44.7551 13.6193 44.9568 13.37 45.2135 13.194C45.4701 13.0107 45.7635 12.919 46.0935 12.919C46.4235 12.919 46.7131 13.0107 46.9625 13.194C47.2191 13.37 47.4171 13.6193 47.5565 13.942C47.7031 14.2573 47.7765 14.6167 47.7765 15.02C47.7765 15.4087 47.7031 15.7607 47.5565 16.076C47.4098 16.3913 47.2081 16.6407 46.9515 16.824C46.7021 17.0073 46.4161 17.099 46.0935 17.099ZM46.0935 16.439C46.2915 16.439 46.4638 16.384 46.6105 16.274C46.7571 16.1567 46.8671 15.9917 46.9405 15.779C47.0211 15.5663 47.0615 15.3097 47.0615 15.009C47.0615 14.7157 47.0211 14.4627 46.9405 14.25C46.8671 14.0373 46.7571 13.8723 46.6105 13.755C46.4638 13.6377 46.2915 13.579 46.0935 13.579C45.8881 13.579 45.7121 13.6377 45.5655 13.755C45.4261 13.8723 45.3161 14.041 45.2355 14.261C45.1621 14.4737 45.1255 14.7267 45.1255 15.02C45.1255 15.3133 45.1621 15.5663 45.2355 15.779C45.3161 15.9917 45.4261 16.1567 45.5655 16.274C45.7121 16.384 45.8881 16.439 46.0935 16.439Z" fill="#30BE82"/>
</svg>
