<svg width="49" height="26" viewBox="0 0 49 26" fill="none" xmlns="http://www.w3.org/2000/svg">
<rect width="49" height="26" rx="5" fill="#30BE82" fill-opacity="0.1"/>
<path d="M12.2321 16.75L15.7679 16.75C17.3115 16.75 18.2733 15.0756 17.4955 13.7423L15.7276 10.7115C14.9558 9.38852 13.0442 9.38852 12.2724 10.7115L10.5045 13.7423C9.72675 15.0756 10.6885 16.75 12.2321 16.75Z" fill="#30BE82"/>
<path d="M30.827 17.077C30.321 17.077 29.8627 16.9633 29.452 16.736C29.0413 16.5013 28.7003 16.1677 28.429 15.735L28.946 15.174C29.254 15.5847 29.562 15.8707 29.87 16.032C30.1853 16.186 30.508 16.263 30.838 16.263C31.19 16.263 31.509 16.1823 31.795 16.021C32.0883 15.8523 32.3193 15.6287 32.488 15.35C32.6567 15.0713 32.741 14.7633 32.741 14.426C32.741 14.096 32.664 13.799 32.51 13.535C32.356 13.2637 32.147 13.051 31.883 12.897C31.619 12.7357 31.3147 12.655 30.97 12.655C30.7867 12.655 30.6033 12.677 30.42 12.721C30.2367 12.7577 30.046 12.82 29.848 12.908C29.6573 12.9887 29.452 13.0913 29.232 13.216L28.748 12.567L29.199 9.3H33.357V10.103H29.65L29.925 9.905L29.518 12.6L29.265 12.424C29.3823 12.3287 29.54 12.237 29.738 12.149C29.936 12.061 30.1523 11.9913 30.387 11.94C30.629 11.8813 30.8637 11.852 31.091 11.852C31.5677 11.852 31.993 11.962 32.367 12.182C32.741 12.3947 33.038 12.6917 33.258 13.073C33.478 13.447 33.588 13.8797 33.588 14.371C33.588 14.8843 33.467 15.3463 33.225 15.757C32.983 16.1603 32.653 16.483 32.235 16.725C31.817 16.9597 31.3477 17.077 30.827 17.077ZM35.836 17L40.951 9.3H41.82L36.683 17H35.836ZM36.408 13.381C36.078 13.381 35.7846 13.293 35.528 13.117C35.2786 12.9337 35.0806 12.688 34.934 12.38C34.7946 12.0647 34.725 11.7053 34.725 11.302C34.725 10.8987 34.7946 10.5393 34.934 10.224C35.0806 9.90133 35.2823 9.652 35.539 9.476C35.7956 9.29267 36.089 9.201 36.419 9.201C36.749 9.201 37.0386 9.29267 37.288 9.476C37.5446 9.652 37.7426 9.90133 37.882 10.224C38.0286 10.5393 38.102 10.8987 38.102 11.302C38.102 11.6907 38.0286 12.0427 37.882 12.358C37.7353 12.6733 37.5336 12.9227 37.277 13.106C37.0203 13.2893 36.7306 13.381 36.408 13.381ZM36.419 12.721C36.617 12.721 36.7856 12.666 36.925 12.556C37.0716 12.4387 37.1816 12.2737 37.255 12.061C37.3356 11.8483 37.376 11.5917 37.376 11.291C37.376 10.9977 37.3356 10.7447 37.255 10.532C37.1816 10.3193 37.0716 10.1543 36.925 10.037C36.7783 9.91967 36.606 9.861 36.408 9.861C36.21 9.861 36.0376 9.92333 35.891 10.048C35.7443 10.1653 35.6306 10.3303 35.55 10.543C35.4766 10.7557 35.44 11.0087 35.44 11.302C35.44 11.5953 35.4766 11.8483 35.55 12.061C35.6306 12.2737 35.7443 12.4387 35.891 12.556C36.0376 12.666 36.2136 12.721 36.419 12.721ZM41.281 17.099C40.951 17.099 40.6576 17.011 40.401 16.835C40.1516 16.6517 39.9536 16.406 39.807 16.098C39.6603 15.7827 39.587 15.4233 39.587 15.02C39.587 14.6167 39.6566 14.2573 39.796 13.942C39.9426 13.6193 40.1443 13.37 40.401 13.194C40.6576 13.0107 40.951 12.919 41.281 12.919C41.611 12.919 41.9006 13.0107 42.15 13.194C42.4066 13.37 42.6046 13.6193 42.744 13.942C42.8906 14.2573 42.964 14.6167 42.964 15.02C42.964 15.4087 42.8906 15.7607 42.744 16.076C42.5973 16.3913 42.3956 16.6407 42.139 16.824C41.8896 17.0073 41.6036 17.099 41.281 17.099ZM41.281 16.439C41.479 16.439 41.6513 16.384 41.798 16.274C41.9446 16.1567 42.0546 15.9917 42.128 15.779C42.2086 15.5663 42.249 15.3097 42.249 15.009C42.249 14.7157 42.2086 14.4627 42.128 14.25C42.0546 14.0373 41.9446 13.8723 41.798 13.755C41.6513 13.6377 41.479 13.579 41.281 13.579C41.0756 13.579 40.8996 13.6377 40.753 13.755C40.6136 13.8723 40.5036 14.041 40.423 14.261C40.3496 14.4737 40.313 14.7267 40.313 15.02C40.313 15.3133 40.3496 15.5663 40.423 15.779C40.5036 15.9917 40.6136 16.1567 40.753 16.274C40.8996 16.384 41.0756 16.439 41.281 16.439Z" fill="#30BE82"/>
</svg>
